# 
# Generated by Sweet Home 3D - ?? ??? 27 15:13:42 YEKT 2024
# http://www.sweethome3d.com/
# 
mtllib table.mtl
g ground_1
usemtl ground_1
v -31.115448 0.0 65.37137
v -31.115448 0.0 119.37137
v 26.884552 0.0 119.37137
v 26.884552 0.0 65.37137
vn 0.0 1.0 0.0
vn 0.0 0.0 0.0
f 1//1 2//1 3//1
f 1//1 3//1 4//1
g Pied_1_2
usemtl flblonde
v -26.76545 0.0 115.321365
v -28.215446 0.0 113.97137
v -25.315449 0.0 113.97137
v -26.76545 96.0 115.321365
v -25.315449 96.0 113.97137
v -28.215446 96.0 113.97137
v -27.790888 0.0 113.01665
v -26.76545 0.0 112.62137
v -25.740007 0.0 113.01665
v -25.740007 0.0 114.92609
v -27.790888 0.0 114.92609
v -26.76545 96.0 112.62137
v -27.790888 96.0 113.01665
v -27.790888 96.0 114.92609
v -25.740007 96.0 114.92609
v -25.740007 96.0 113.01665
vn 0.0 -1.0 0.0
f 5//3 6//3 7//3
f 8//1 9//1 10//1
f 11//3 12//3 6//3
f 13//3 7//3 12//3
f 14//3 5//3 7//3
f 15//3 6//3 5//3
f 12//3 7//3 6//3
f 16//1 17//1 10//1
f 10//1 18//1 8//1
f 8//1 19//1 9//1
f 9//1 20//1 16//1
f 16//1 10//1 9//1
g Pied_1_12_3
usemtl flblonde
vn -0.7318945 0.0 0.681418
vn -1.0 0.0 0.0000003
vn -0.0000003 0.0 -1.0
vn 0.7318939 0.0 -0.6814185
vn -0.73189414 0.0 -0.6814183
vn 0.73189425 0.0 0.6814182
vn -0.0000003 0.0 1.0
vn 1.0 0.0 0.0000003
f 15//4 18//4 10//5
f 15//4 10//5 6//5
f 12//6 16//6 20//7
f 12//6 20//7 13//7
f 6//5 10//5 17//8
f 6//5 17//8 11//8
f 11//8 17//8 16//6
f 11//8 16//6 12//6
f 14//9 19//9 8//10
f 14//9 8//10 5//10
f 5//10 8//10 18//4
f 5//10 18//4 15//4
f 13//7 20//7 9//11
f 13//7 9//11 7//11
f 7//11 9//11 19//9
f 7//11 19//9 14//9
g Pied_4
usemtl flblonde
v 22.534554 96.0 115.321365
v 23.98455 96.0 113.97137
v 21.084553 96.0 113.97137
v 23.98455 0.0 113.97137
v 22.534554 0.0 115.321365
v 21.084553 0.0 113.97137
v 22.534554 96.0 112.62137
v 21.509111 96.0 113.01665
v 21.509111 96.0 114.92609
v 23.559992 96.0 114.92609
v 23.559992 96.0 113.01665
v 21.509111 0.0 114.92609
v 21.509111 0.0 113.01665
v 22.534554 0.0 112.62137
v 23.559992 0.0 113.01665
v 23.559992 0.0 114.92609
f 21//1 22//1 23//1
f 24//3 25//3 26//3
f 27//1 28//1 23//1
f 23//1 29//1 21//1
f 21//1 30//1 22//1
f 22//1 31//1 27//1
f 27//1 23//1 22//1
f 32//3 26//3 25//3
f 33//3 34//3 26//3
f 35//3 24//3 34//3
f 36//3 25//3 24//3
f 26//3 34//3 24//3
g Pied_12_5
usemtl flblonde
vn 0.7318945 0.0 0.681418
vn 0.0000003 0.0 1.0
vn -0.7318939 0.0 -0.6814185
vn 0.0000003 0.0 -1.0
vn -0.73189425 0.0 0.6814182
vn 0.73189414 0.0 -0.6814183
f 24//11 22//11 30//12
f 24//11 30//12 36//12
f 36//12 30//12 21//13
f 36//12 21//13 25//13
f 33//14 28//14 27//15
f 33//14 27//15 34//15
f 32//16 29//16 23//5
f 32//16 23//5 26//5
f 26//5 23//5 28//14
f 26//5 28//14 33//14
f 34//15 27//15 31//17
f 34//15 31//17 35//17
f 25//13 21//13 29//16
f 25//13 29//16 32//16
f 35//17 31//17 22//11
f 35//17 22//11 24//11
g Pied_2_6
usemtl flblonde
v -28.215446 0.0 70.77137
v -26.76545 0.0 69.42137
v -25.315449 0.0 70.77137
v -26.76545 96.0 69.42137
v -28.215446 96.0 70.77137
v -25.315449 96.0 70.77137
v -25.740007 0.0 69.81665
v -25.740007 0.0 71.72609
v -26.76545 0.0 72.12137
v -27.790888 0.0 71.72609
v -27.790888 0.0 69.81665
v -26.76545 96.0 72.12137
v -25.740007 96.0 71.72609
v -25.740007 96.0 69.81665
v -27.790888 96.0 69.81665
v -27.790888 96.0 71.72609
f 37//3 38//3 39//3
f 40//1 41//1 42//1
f 43//3 39//3 38//3
f 44//3 45//3 39//3
f 46//3 37//3 45//3
f 47//3 38//3 37//3
f 39//3 45//3 37//3
f 48//1 49//1 42//1
f 42//1 50//1 40//1
f 40//1 51//1 41//1
f 41//1 52//1 48//1
f 48//1 42//1 41//1
g Pied_2_12_7
usemtl flblonde
vn -1.0 0.0 -0.0000003
vn -0.7318945 0.0 -0.681418
vn 0.73189425 0.0 -0.6814182
vn 1.0 0.0 -0.0000003
vn -0.0000003 0.0 -1.0
vn 0.7318939 0.0 0.6814185
vn -0.0000003 0.0 1.0
vn -0.73189414 0.0 0.6814183
f 37//18 41//18 51//19
f 37//18 51//19 47//19
f 43//20 50//20 42//21
f 43//20 42//21 39//21
f 38//22 40//22 50//20
f 38//22 50//20 43//20
f 47//19 51//19 40//22
f 47//19 40//22 38//22
f 44//23 49//23 48//24
f 44//23 48//24 45//24
f 39//21 42//21 49//23
f 39//21 49//23 44//23
f 45//24 48//24 52//25
f 45//24 52//25 46//25
f 46//25 52//25 41//18
f 46//25 41//18 37//18
g Pied_3_8
usemtl flblonde
v 22.534554 0.0 72.12137
v 21.084553 0.0 70.77137
v 23.98455 0.0 70.77137
v 22.534554 96.0 72.12137
v 23.98455 96.0 70.77137
v 21.084553 96.0 70.77137
v 21.509111 0.0 69.81665
v 22.534554 0.0 69.42137
v 23.559992 0.0 69.81665
v 23.559992 0.0 71.72609
v 21.509111 0.0 71.72609
v 22.534554 96.0 69.42137
v 21.509111 96.0 69.81665
v 21.509111 96.0 71.72609
v 23.559992 96.0 71.72609
v 23.559992 96.0 69.81665
f 53//3 54//3 55//3
f 56//1 57//1 58//1
f 59//3 60//3 54//3
f 61//3 55//3 60//3
f 62//3 53//3 55//3
f 63//3 54//3 53//3
f 60//3 55//3 54//3
f 64//1 65//1 58//1
f 58//1 66//1 56//1
f 56//1 67//1 57//1
f 57//1 68//1 64//1
f 64//1 58//1 57//1
g Pied_3_12_9
usemtl flblonde
vn -0.7318939 0.0 0.6814185
vn 0.0000003 0.0 -1.0
vn 0.7318945 0.0 -0.681418
vn -0.73189425 0.0 -0.6814182
vn 0.73189414 0.0 0.6814183
vn 0.0000003 0.0 1.0
f 63//26 66//26 58//18
f 63//26 58//18 54//18
f 60//27 64//27 68//28
f 60//27 68//28 61//28
f 54//18 58//18 65//29
f 54//18 65//29 59//29
f 59//29 65//29 64//27
f 59//29 64//27 60//27
f 62//30 67//30 56//31
f 62//30 56//31 53//31
f 53//31 56//31 66//26
f 53//31 66//26 63//26
f 61//28 68//28 57//21
f 61//28 57//21 55//21
f 55//21 57//21 67//30
f 55//21 67//30 62//30
g Plateau_10
usemtl flblonde
v -31.115448 96.0 119.37137
v -31.115448 96.0 65.37137
v 26.884552 96.0 65.37137
v 26.884552 96.0 119.37137
v 26.884552 104.0 119.37137
v 26.884552 104.0 65.37137
v -31.115448 104.0 119.37137
v -31.115448 104.0 65.37137
vn 1.0 0.0 0.0
vn 0.0 0.0 1.0
vn 0.0 0.0 -1.0
vn -1.0 -0.0 -0.0
f 69//3 70//3 71//3
f 69//3 71//3 72//3
f 73//32 72//32 71//32
f 73//32 71//32 74//32
f 73//33 75//33 69//33
f 73//33 69//33 72//33
f 74//34 71//34 70//34
f 74//34 70//34 76//34
f 69//35 75//35 76//35
f 69//35 76//35 70//35
f 74//1 76//1 75//1
f 74//1 75//1 73//1
